<svg xmlns="http://www.w3.org/2000/svg" viewBox="0 0 335 310" fill="none" role="img" aria-label="Caderinho de bar logo">
  <path d="M73.1438.465c.85 0 1.69-.01 2.57-.01 2.82-.02 5.63-.02 8.45-.03 2.03-.01 4.06-.02 6.09-.02 6.65-.03 13.3-.05 19.95-.06 2.3 0 4.6-.01 6.9-.02 9.56-.02 19.13-.04 28.69-.05 13.67-.01 27.33-.05 41-.1 9.63-.04 19.26-.06 28.89-.07 5.74 0 11.48-.01 17.22-.05 5.41-.03 10.82-.03 16.23-.02 1.97 0 3.94-.01 5.91-.03 23.69-.2 43.7 5.23 61.45 21.56 16.06 16.4 18.19 39.07 18.17 60.84.01 1.76.01 3.51.02 5.27.02 4.73.02 9.46.03 14.19 0 2.96 0 5.93.01 8.89.02 10.38.02 20.76.02 31.13 0 9.63.02 19.25.05 28.87.03 8.3.04 16.61.04 24.91 0 4.94 0 9.88.03 14.82.02 4.66.01 9.31 0 13.96 0 1.7 0 3.39.02 5.08.14 21.18-3.4 43.18-18.51 59.09-16.19 16.35-36.49 21.14-58.84 21.28-2.77.01-5.53 0-8.29 0-2.01 0-4.01.01-6.02.01-5.41.02-10.82.02-16.24.02-4.53-.01-9.07 0-13.6 0-10.71.02-21.42.02-32.12.01-11.01-.01-22.02.01-33.03.03-9.49.01-18.98.02-28.46.02-5.65 0-11.3 0-16.95.01-5.32.01-10.64.01-15.96 0-1.94 0-3.88 0-5.82.01-24.85.1-44.63-4.61-63.35-21.94C1.704 271.235.224 249.345.214 227.455c0-1.74-.01-3.48-.01-5.21-.02-4.7-.02-9.39-.03-14.09 0-2.94-.01-5.89-.01-8.83-.01-9.23-.02-18.46-.03-27.69 0-10.62-.02-21.23-.05-31.84-.02-8.23-.03-16.46-.03-24.69 0-4.9-.01-9.81-.03-14.71-.01-4.62-.01-9.24-.01-13.86 0-1.68 0-3.36-.01-5.04C-.126 59.105 3.044 37.295 19.184 20.365 34.304 6.155 52.694.475 73.144.465Z" fill="#093D2F"/>
  <path d="M119.125 48.509c34.726-.09 34.601.533 70.027.432 7.313-.02 14.627-.05 22.16-.08 8.924-.01 8.924-.01 13.106-.02 2.912 0 5.833-.01 8.754-.03 3.722-.02 7.444-.02 11.175-.02 2.011 0 4.012-.02 6.023-.03h1.831c1.55 0 1.55 0 3.131-.01 4.282.544 7.584 1.973 10.605 5.124 3.242 5.265 4.072 9.392 4.022 15.533.01.886.02 1.772.03 2.678.04 2.899.03 5.788.02 8.687.01 2.023.02 4.057.03 6.08.02 4.228.02 8.466 0 12.704-.02 5.416.02 10.831.07 16.247.04 4.188.04 8.365.03 12.543 0 1.993.01 3.996.03 5.989.03 2.799.01 5.587-.02 8.386.02.815.04 1.64.06 2.476-.11 4.792-.97 7.127-4.372 10.56-1.171 1.047-2.361 2.073-3.562 3.09-1.14 1.258-2.271 2.537-3.381 3.835-2.671 3.121-5.383 6.191-8.124 9.251-2.611 2.91-5.202 5.839-7.753 8.808-3.982 4.611-8.154 9.06-12.316 13.51-.54.583-1.091 1.167-1.651 1.771-.49.524-.98 1.047-1.481 1.581-1.52 1.691-3.36 3.888-4.86 3.888-2-.5-4.539-3.483-7.5-6-5.783-4.882-10.907-8.631-18.5-8.5-5.402.805-7.038 2.46-11.5 5.5-1.05.705-4.693 5.248-5.221 6.5-5.279 12.5 1.942 17.873 4.221 21.5 4.398 7 7.298 9.584 12.5 15 17.318 18.25 13.543 18.302 13.543 21-30.704 0-61.409 0-93.043 0 0-68.431.125-137.486.125-207.991Z" fill="#115B3F"/>
  <path d="M102.479 50.381c0 68.608.021 136.931.021 207.619-33.728 0-33.728 0-39.68-3.998-3.78-4.338-4.087-7.927-4.077-13.574v-2.01c0-2.199 0-4.388.01-6.577 0-1.519.01-3.039.01-4.558 0-3.998.01-7.996.02-11.994.01-4.079.02-8.157.02-12.235.01-8.006.03-16.013.05-24.019h23.808v-14.993H58.852V107.07H82.66V93.075c-7.857 0-16.087-.194-24.181-.194 0-4 .03-7.992 0-12-.02-1.349.03-2.64 0-4-.228-16.531 4.291-18.277 7.335-20.527 9.435-6.973 24.935-5.973 36.665-5.973Z" fill="#115B40"/>
  <path d="M291.44 149.474c3.59 2.36 7.06 5.12 9 9 0 3.88-.12 5.49-2.42 8.71-.87.88-1.73 1.76-2.62 2.67-.93.96-1.86 1.93-2.79 2.89-.87.9-1.75 1.8-2.65 2.73-1.18 1.32-2.35 2.66-3.5 4-2.79 3.21-5.64 6.36-8.5 9.5-3.46 3.79-6.87 7.62-10.24 11.5-1.96 2.23-3.95 4.43-5.95 6.62-3.61 4.01-7.13 8.08-10.62 12.19-4.55 5.35-9.23 10.55-14.01 15.69-3.82 4.09-7.54 8.25-11.18 12.5-3.01-1.35-5.1-2.86-7.43-5.2-.62-.62-1.25-1.25-1.9-1.9-.65-.67-1.31-1.34-1.98-2.02-.68-.69-1.36-1.37-2.05-2.07-3.77-3.83-7.42-7.72-10.88-11.83-2.89-3.25-6.01-6.27-9.12-9.3-2.84-2.79-4.43-4.39-5.08-8.37.62-4.67 3.08-7.14 6.44-10.31 3.13-2.08 5.09-2.61 8.83-2.5 4.38 1.01 7.13 4.36 10.17 7.5 1.58 1.63 3.16 3.25 4.75 4.88.72.76 1.43 1.52 2.17 2.3 2.11 1.85 3.34 2.44 6.08 2.82.4-.46.8-.92 1.21-1.4 4.08-4.68 8.22-9.31 12.38-13.91 1.93-2.15 3.83-4.32 5.72-6.5 4.24-4.85 8.66-9.52 13.08-14.19 3.75-3.97 7.4-8 10.98-12.13 2.29-2.63 4.61-5.22 6.94-7.81.84-.93 1.69-1.87 2.55-2.84 3.52-3.66 7.22-4.3 12.14-3.22Z" fill="#FACB24"/>
  <path d="M105 50h10v208h-10V50Z" fill="#FDFDFD"/>
  <path d="M151.375 93.619h90v14h-90v-14Z" fill="#F5F7F7"/>
  <path d="M151.375 130.619h89v13h-89v-13Z" fill="#FDFDFD"/>
  <path d="M271.375 213.619c-.375-.619-.73-.333-1-.001-2.16 2.66-4.375 4.967-6.75 7.56-2.125 2.321-5.786 6.322-6.625 7.321-.723.861-9.957 10.5-11.065 11.669-.54.57-1.06 1.13-1.58 1.68-1.07 1.15-2.15 2.31-3.23 3.46-3.41 3.58-6.37 6.93-8.75 11.31 4.99.21 9.95.33 14.94.15 7.21-.54 12.51-4.58 17.26-9.79 7.84-10.3 7.38-21.03 6.8-33.36Z" fill="#115C3F"/>
  <path d="M151.375 166.619h41v14h-41v-14Z" fill="#F2F5F5"/>
</svg>
