<svg width="1114" height="310" viewBox="0 0 1114 310" fill="none" xmlns="http://www.w3.org/2000/svg">
<path d="M73.1438 0.465299C73.9938 0.465299 74.8338 0.455299 75.7138 0.455299C78.5338 0.435299 81.3438 0.435299 84.1638 0.425299C86.1938 0.415299 88.2238 0.405299 90.2538 0.405299C96.9038 0.375299 103.554 0.355299 110.204 0.345299C112.504 0.345299 114.804 0.335299 117.104 0.325299C126.664 0.305299 136.234 0.285299 145.794 0.275299C159.464 0.265299 173.124 0.225299 186.794 0.175299C196.424 0.135299 206.054 0.115299 215.684 0.105299C221.424 0.105299 227.164 0.0952994 232.904 0.0552994C238.314 0.0252994 243.724 0.0252994 249.134 0.0352994C251.104 0.0352994 253.074 0.0252994 255.044 0.00529943C278.734 -0.194701 298.744 5.2353 316.494 21.5653C332.554 37.9653 334.684 60.6353 334.664 82.4053C334.674 84.1653 334.674 85.9153 334.684 87.6753C334.704 92.4053 334.704 97.1353 334.714 101.865C334.714 104.825 334.714 107.795 334.724 110.755C334.744 121.135 334.744 131.515 334.744 141.885C334.744 151.515 334.764 161.135 334.794 170.755C334.824 179.055 334.834 187.365 334.834 195.665C334.834 200.605 334.834 205.545 334.864 210.485C334.884 215.145 334.874 219.795 334.864 224.445C334.864 226.145 334.864 227.835 334.884 229.525C335.024 250.705 331.484 272.705 316.374 288.615C300.184 304.965 279.884 309.755 257.534 309.895C254.764 309.905 252.004 309.895 249.244 309.895C247.234 309.895 245.234 309.905 243.224 309.905C237.814 309.925 232.404 309.925 226.984 309.925C222.454 309.915 217.914 309.925 213.384 309.925C202.674 309.945 191.964 309.945 181.264 309.935C170.254 309.925 159.244 309.945 148.234 309.965C138.744 309.975 129.254 309.985 119.774 309.985C114.124 309.985 108.474 309.985 102.824 309.995C97.5038 310.005 92.1838 310.005 86.8638 309.995C84.9238 309.995 82.9838 309.995 81.0438 310.005C56.1938 310.105 36.4138 305.395 17.6938 288.065C1.70377 271.235 0.223769 249.345 0.213769 227.455C0.213769 225.715 0.203767 223.975 0.203767 222.245C0.183767 217.545 0.183768 212.855 0.173768 208.155C0.173768 205.215 0.163766 202.265 0.163766 199.325C0.153766 190.095 0.143767 180.865 0.133767 171.635C0.133767 161.015 0.113772 150.405 0.0837719 139.795C0.0637719 131.565 0.0537731 123.335 0.0537731 115.105C0.0537731 110.205 0.0437667 105.295 0.0237667 100.395C0.0137667 95.7753 0.0137722 91.1553 0.0137722 86.5353C0.0137722 84.8553 0.01377 83.1753 0.00377004 81.4953C-0.12623 59.1053 3.04377 37.2953 19.1838 20.3653C34.3038 6.1553 52.6938 0.475299 73.1438 0.465299Z" fill="#093D2F"/>
<path d="M119.125 48.509C153.851 48.4184 153.726 49.0418 189.152 48.9411C196.465 48.921 203.779 48.8908 211.312 48.8606C220.236 48.8505 220.236 48.8505 224.418 48.8404C227.33 48.8404 230.251 48.8304 233.172 48.8102C236.894 48.7901 240.616 48.7901 244.347 48.7901C246.358 48.7901 248.359 48.77 250.37 48.7599C252.161 48.7599 252.161 48.7599 253.992 48.77C255.542 48.77 255.542 48.77 257.123 48.7599C261.405 49.3035 264.707 50.7329 267.728 53.8837C270.97 59.1484 271.8 63.2756 271.75 69.4161C271.76 70.302 271.77 71.1878 271.78 72.0938C271.82 74.9929 271.81 77.882 271.8 80.7811C271.81 82.8044 271.82 84.8378 271.83 86.8612C271.85 91.0891 271.85 95.327 271.83 99.565C271.81 104.981 271.85 110.396 271.9 115.812C271.94 120 271.94 124.177 271.93 128.355C271.93 130.348 271.94 132.351 271.96 134.344C271.99 137.143 271.97 139.931 271.94 142.73C271.96 143.545 271.98 144.37 272 145.206C271.89 149.998 271.03 152.333 267.628 155.766C266.457 156.813 265.267 157.839 264.066 158.856C262.926 160.114 261.795 161.393 260.685 162.691C258.014 165.812 255.302 168.882 252.561 171.942C249.95 174.852 247.359 177.781 244.808 180.75C240.826 185.361 236.654 189.81 232.492 194.26C231.952 194.843 231.401 195.427 230.841 196.031C230.351 196.555 229.861 197.078 229.36 197.612C227.84 199.303 226 201.5 224.5 201.5C222.5 201 219.961 198.017 217 195.5C211.217 190.618 206.093 186.869 198.5 187C193.098 187.805 191.462 189.46 187 192.5C185.95 193.205 182.307 197.748 181.779 199C176.5 211.5 183.721 216.873 186 220.5C190.398 227.5 193.298 230.084 198.5 235.5C215.818 253.75 212.043 253.802 212.043 256.5C181.339 256.5 150.634 256.5 119 256.5C119 188.069 119.125 119.014 119.125 48.509Z" fill="#115B3F"/>
<path d="M102.479 50.3806C102.479 118.989 102.5 187.312 102.5 258C68.772 258 68.772 258 62.82 254.002C59.0405 249.664 58.733 246.075 58.7429 240.428C58.7429 239.758 58.7429 239.099 58.7429 238.419C58.7429 236.22 58.7429 234.031 58.7529 231.842C58.7529 230.323 58.7628 228.803 58.7628 227.284C58.7628 223.286 58.7727 219.288 58.7826 215.29C58.7925 211.211 58.8025 207.133 58.8025 203.055C58.8124 195.049 58.8322 187.042 58.8521 179.036C66.7087 179.036 74.5653 179.036 82.66 179.036C82.66 174.088 82.66 169.141 82.66 164.043C74.8034 164.043 66.9468 164.043 58.8521 164.043C58.8521 145.242 58.8521 126.44 58.8521 107.069C66.7087 107.069 74.5653 107.069 82.66 107.069C82.66 102.451 82.66 97.8332 82.66 93.0754C74.8034 93.0754 66.5735 92.8808 58.4788 92.8808C58.4788 88.8808 58.5086 84.889 58.4788 80.8808C58.459 79.5315 58.5086 78.2402 58.4788 76.8808C58.7069 60.3494 63 58.6034 66.0438 56.3538C75.4788 49.3808 90.9788 50.3808 102.479 50.3806Z" fill="#115B40"/>
<path d="M291.44 149.474C295.03 151.834 298.5 154.594 300.44 158.474C300.92 162.354 300.8 163.964 298.5 167.184C297.63 168.064 296.77 168.944 295.88 169.854C294.95 170.814 294.02 171.784 293.09 172.744C292.22 173.644 291.34 174.544 290.44 175.474C289.26 176.794 288.09 178.134 286.94 179.474C284.15 182.684 281.3 185.834 278.44 188.974C274.98 192.764 271.57 196.594 268.2 200.474C266.24 202.704 264.25 204.904 262.25 207.094C258.64 211.104 255.12 215.174 251.63 219.284C247.08 224.634 242.4 229.834 237.62 234.974C233.8 239.064 230.08 243.224 226.44 247.474C223.43 246.124 221.34 244.614 219.01 242.274C218.39 241.654 217.76 241.024 217.11 240.374C216.46 239.704 215.8 239.034 215.13 238.354C214.45 237.664 213.77 236.984 213.08 236.284C209.31 232.454 205.66 228.564 202.2 224.454C199.31 221.204 196.19 218.184 193.08 215.154C190.24 212.364 188.65 210.764 188 206.784C188.62 202.114 191.08 199.644 194.44 196.474C197.57 194.394 199.53 193.864 203.27 193.974C207.65 194.984 210.4 198.334 213.44 201.474C215.02 203.104 216.6 204.724 218.19 206.354C218.91 207.114 219.62 207.874 220.36 208.654C222.47 210.504 223.7 211.094 226.44 211.474C226.84 211.014 227.24 210.554 227.65 210.074C231.73 205.394 235.87 200.764 240.03 196.164C241.96 194.014 243.86 191.844 245.75 189.664C249.99 184.814 254.41 180.144 258.83 175.474C262.58 171.504 266.23 167.474 269.81 163.344C272.1 160.714 274.42 158.124 276.75 155.534C277.59 154.604 278.44 153.664 279.3 152.694C282.82 149.034 286.52 148.394 291.44 149.474Z" fill="#FACB24"/>
<path d="M105 50C108.3 50 111.6 50 115 50C115 118.64 115 187.28 115 258C111.7 258 108.4 258 105 258C105 189.36 105 120.72 105 50Z" fill="#FDFDFD"/>
<path d="M151.375 93.6191C181.075 93.6191 210.775 93.6191 241.375 93.6191C241.375 98.2391 241.375 102.859 241.375 107.619C211.675 107.619 181.975 107.619 151.375 107.619C151.375 102.999 151.375 98.3791 151.375 93.6191Z" fill="#F5F7F7"/>
<path d="M151.375 130.619C180.745 130.619 210.115 130.619 240.375 130.619C240.375 134.909 240.375 139.199 240.375 143.619C211.005 143.619 181.635 143.619 151.375 143.619C151.375 139.329 151.375 135.039 151.375 130.619Z" fill="#FDFDFD"/>
<path d="M271.375 213.619C271 213 270.645 213.286 270.375 213.619C268.215 216.279 266 218.586 263.625 221.179C261.5 223.5 257.839 227.501 257 228.5C256.277 229.361 247.043 239 245.935 240.169C245.395 240.739 244.875 241.299 244.355 241.849C243.285 242.999 242.205 244.159 241.125 245.309C237.715 248.889 234.755 252.239 232.375 256.619C237.365 256.829 242.325 256.949 247.315 256.769C254.525 256.229 259.825 252.189 264.575 246.979C272.415 236.679 271.955 225.949 271.375 213.619Z" fill="#115C3F"/>
<path d="M151.375 166.619C164.905 166.619 178.435 166.619 192.375 166.619C192.375 171.239 192.375 175.859 192.375 180.619C178.845 180.619 165.315 180.619 151.375 180.619C151.375 175.999 151.375 171.379 151.375 166.619Z" fill="#F2F5F5"/>
<path d="M57.3751 105.619C57.7051 105.619 58.0351 105.619 58.3751 105.619C58.3751 125.089 58.3751 144.559 58.3751 164.619C65.9651 164.619 73.5551 164.619 81.3751 164.619C81.3751 165.609 81.3751 166.599 81.3751 167.619C73.4551 167.619 65.5351 167.619 57.3751 167.619C56.2451 158.619 56.2451 158.619 56.2451 153.969C56.2451 152.939 56.2351 151.899 56.2351 150.839C56.2351 149.749 56.2451 148.659 56.2451 147.529C56.2451 146.399 56.2451 145.259 56.2351 144.089C56.2351 141.689 56.2451 139.299 56.2451 136.909C56.2551 133.239 56.2451 129.559 56.2351 125.889C56.2351 123.559 56.2451 121.239 56.2451 118.909C56.2451 117.809 56.2351 116.709 56.2351 115.569C56.2351 114.549 56.2451 113.539 56.2451 112.489C56.2451 111.599 56.2451 110.699 56.2451 109.779C56.3751 107.619 56.3751 107.619 57.3751 105.619Z" fill="#07372A"/>
<path d="M57.3751 164.619C65.2951 164.619 73.2151 164.619 81.3751 164.619C81.3751 165.609 81.3751 166.599 81.3751 167.619C73.4551 167.619 65.5351 167.619 57.3751 167.619C57.3751 166.629 57.3751 165.639 57.3751 164.619Z" fill="#042E20"/>
<path d="M299.375 155.619C300.695 155.949 302.015 156.279 303.375 156.619C303.375 159.919 303.375 163.219 303.375 166.619C302.385 166.289 301.395 165.959 300.375 165.619C300.395 164.709 300.415 163.809 300.435 162.869C300.385 160.189 300.155 158.149 299.375 155.619Z" fill="#053C30"/>
<path d="M232 256C238.5 257.5 247 257.328 252 256C257.197 254.62 261.785 252.51 265.362 248.416C268.94 244.322 271.12 238.95 272 233.5C272.88 228.05 274.474 216.078 270.38 212.5L249.926 234.926L232 256Z" fill="#D9D9D9"/>
<path d="M389.953 81.9219C389.953 76.7031 390.938 71.8438 392.906 67.3438C394.875 62.8125 397.719 58.8906 401.438 55.5781C405.188 52.2344 409.75 49.6094 415.125 47.7031C420.531 45.7969 426.641 44.8438 433.453 44.8438C439.422 44.8438 444.891 45.4531 449.859 46.6719C454.859 47.8594 459.5 49.6875 463.781 52.1562L456.938 63.4062C455.656 62.5625 454.172 61.8125 452.484 61.1562C450.828 60.5 449.047 59.9531 447.141 59.5156C445.266 59.0469 443.312 58.6875 441.281 58.4375C439.281 58.1875 437.297 58.0625 435.328 58.0625C430.578 58.0625 426.344 58.6562 422.625 59.8438C418.906 61 415.766 62.6406 413.203 64.7656C410.672 66.8594 408.734 69.375 407.391 72.3125C406.078 75.2188 405.422 78.4219 405.422 81.9219C405.422 85.5469 406.109 88.875 407.484 91.9062C408.859 94.9375 410.844 97.5625 413.438 99.7812C416.062 101.969 419.25 103.688 423 104.938C426.781 106.156 431.047 106.766 435.797 106.766C437.953 106.766 440.094 106.609 442.219 106.297C444.344 105.984 446.391 105.562 448.359 105.031C450.359 104.469 452.281 103.812 454.125 103.062C455.969 102.281 457.688 101.438 459.281 100.531L466.125 111.781C462.125 114.344 457.5 116.359 452.25 117.828C447 119.266 441.422 119.984 435.516 119.984C427.984 119.984 421.375 119.016 415.688 117.078C410 115.109 405.25 112.422 401.438 109.016C397.625 105.578 394.75 101.547 392.812 96.9219C390.906 92.2656 389.953 87.2656 389.953 81.9219ZM478.172 101.562C478.172 98.9062 478.75 96.4844 479.906 94.2969C481.062 92.1094 482.797 90.2344 485.109 88.6719C487.422 87.0781 490.297 85.8594 493.734 85.0156C497.203 84.1406 501.234 83.7031 505.828 83.7031C509.234 83.7031 512.812 83.9531 516.562 84.4531C520.344 84.9531 524.234 85.7188 528.234 86.75C528.078 85 527.547 83.3906 526.641 81.9219C525.734 80.4219 524.469 79.1406 522.844 78.0781C521.25 76.9844 519.312 76.1406 517.031 75.5469C514.781 74.9531 512.219 74.6562 509.344 74.6562C507.781 74.6562 506.062 74.75 504.188 74.9375C502.312 75.125 500.375 75.4062 498.375 75.7812C496.375 76.1562 494.391 76.625 492.422 77.1875C490.484 77.75 488.672 78.4219 486.984 79.2031L482.766 67.8125C484.859 67.0625 487.094 66.375 489.469 65.75C491.875 65.125 494.328 64.5938 496.828 64.1562C499.328 63.6875 501.828 63.3281 504.328 63.0781C506.828 62.8281 509.25 62.7031 511.594 62.7031C521.938 62.7031 529.625 65.3438 534.656 70.625C539.688 75.9062 542.203 84 542.203 94.9062V119H528.328V113.797C526.891 114.641 525.312 115.438 523.594 116.188C521.906 116.938 520.062 117.594 518.062 118.156C516.062 118.719 513.906 119.156 511.594 119.469C509.312 119.812 506.891 119.984 504.328 119.984C500.016 119.984 496.219 119.516 492.938 118.578C489.688 117.641 486.969 116.344 484.781 114.688C482.594 113.031 480.938 111.094 479.812 108.875C478.719 106.625 478.172 104.188 478.172 101.562ZM492.797 101.094C492.797 102 493.031 102.875 493.5 103.719C493.969 104.531 494.719 105.266 495.75 105.922C496.781 106.547 498.094 107.062 499.688 107.469C501.312 107.844 503.266 108.031 505.547 108.031C507.984 108.031 510.344 107.812 512.625 107.375C514.906 106.938 517.031 106.359 519 105.641C520.969 104.922 522.75 104.094 524.344 103.156C525.938 102.219 527.266 101.25 528.328 100.25V97.8125C526.203 97.2188 524.094 96.7188 522 96.3125C519.938 95.9062 517.953 95.5938 516.047 95.375C514.172 95.125 512.391 94.9531 510.703 94.8594C509.047 94.7656 507.594 94.7188 506.344 94.7188C503.75 94.7188 501.594 94.8906 499.875 95.2344C498.156 95.5781 496.766 96.0469 495.703 96.6406C494.641 97.2031 493.891 97.875 493.453 98.6562C493.016 99.4375 492.797 100.25 492.797 101.094ZM556.312 91.5781C556.312 87.1719 557.141 83.2031 558.797 79.6719C560.453 76.1094 562.734 73.0781 565.641 70.5781C568.578 68.0469 572.047 66.1094 576.047 64.7656C580.078 63.3906 584.438 62.7031 589.125 62.7031C591.125 62.7031 593.094 62.8281 595.031 63.0781C597 63.3281 598.875 63.6719 600.656 64.1094C602.469 64.5469 604.156 65.0781 605.719 65.7031C607.312 66.2969 608.719 66.9531 609.938 67.6719V41.2344H623.812V119H609.938V113.797C608.719 114.641 607.281 115.438 605.625 116.188C603.969 116.938 602.188 117.594 600.281 118.156C598.375 118.719 596.391 119.156 594.328 119.469C592.297 119.812 590.281 119.984 588.281 119.984C583.594 119.984 579.281 119.297 575.344 117.922C571.438 116.547 568.078 114.609 565.266 112.109C562.453 109.609 560.25 106.625 558.656 103.156C557.094 99.6562 556.312 95.7969 556.312 91.5781ZM570.891 91.5781C570.891 93.7969 571.328 95.8906 572.203 97.8594C573.109 99.8281 574.391 101.562 576.047 103.062C577.734 104.531 579.75 105.703 582.094 106.578C584.469 107.422 587.125 107.844 590.062 107.844C591.938 107.844 593.812 107.672 595.688 107.328C597.562 106.953 599.359 106.438 601.078 105.781C602.828 105.125 604.453 104.328 605.953 103.391C607.484 102.453 608.812 101.406 609.938 100.25V81.0781C608.531 79.9531 607.047 79 605.484 78.2188C603.922 77.4375 602.328 76.7969 600.703 76.2969C599.078 75.7969 597.438 75.4375 595.781 75.2188C594.125 74.9688 592.516 74.8438 590.953 74.8438C587.766 74.8438 584.922 75.2812 582.422 76.1562C579.953 77 577.859 78.1719 576.141 79.6719C574.453 81.1719 573.156 82.9375 572.25 84.9688C571.344 87 570.891 89.2031 570.891 91.5781ZM638.203 91.1562C638.203 87.4062 638.969 83.8281 640.5 80.4219C642.031 76.9844 644.234 73.9531 647.109 71.3281C649.984 68.7031 653.5 66.6094 657.656 65.0469C661.844 63.4844 666.594 62.7031 671.906 62.7031C677.188 62.7031 681.938 63.5 686.156 65.0938C690.406 66.6562 694 68.8125 696.938 71.5625C699.906 74.3125 702.172 77.5469 703.734 81.2656C705.328 84.9844 706.125 88.9688 706.125 93.2188C706.125 93.75 706.109 94.3281 706.078 94.9531C706.078 95.5469 706.047 96.0938 705.984 96.5938H653.672C654.266 98.25 655.219 99.7656 656.531 101.141C657.875 102.516 659.547 103.703 661.547 104.703C663.547 105.703 665.859 106.484 668.484 107.047C671.109 107.578 674.016 107.844 677.203 107.844C680.391 107.844 683.562 107.516 686.719 106.859C689.875 106.172 692.891 105.312 695.766 104.281L700.453 114.875C698.641 115.719 696.797 116.469 694.922 117.125C693.078 117.75 691.141 118.281 689.109 118.719C687.109 119.125 685 119.438 682.781 119.656C680.594 119.875 678.281 119.984 675.844 119.984C669.625 119.984 664.172 119.234 659.484 117.734C654.797 116.234 650.875 114.188 647.719 111.594C644.562 109 642.188 105.953 640.594 102.453C639 98.9531 638.203 95.1875 638.203 91.1562ZM691.406 85.7656C690.906 84.2344 690.125 82.8125 689.062 81.5C688.031 80.1562 686.734 79 685.172 78.0312C683.609 77.0312 681.797 76.25 679.734 75.6875C677.672 75.125 675.406 74.8438 672.938 74.8438C670.312 74.8438 667.922 75.1406 665.766 75.7344C663.609 76.3281 661.719 77.125 660.094 78.125C658.469 79.125 657.109 80.2812 656.016 81.5938C654.953 82.9062 654.172 84.2969 653.672 85.7656H691.406ZM721.078 63.6875H734.953V71.6562C738.016 69.375 741.25 67.4062 744.656 65.75C748.062 64.0938 751.453 62.8281 754.828 61.9531L758.906 74.6562C753.562 75.1875 748.859 76.3906 744.797 78.2656C740.766 80.1094 737.484 82.7188 734.953 86.0938V119H721.078V63.6875ZM769.266 63.6875H783.141V68.375C786.828 66.2812 790.344 64.8125 793.688 63.9688C797.062 63.125 800.359 62.7031 803.578 62.7031C807.797 62.7031 811.703 63.3281 815.297 64.5781C818.891 65.7969 822 67.625 824.625 70.0625C827.25 72.5 829.297 75.5469 830.766 79.2031C832.266 82.8281 833.016 87.0312 833.016 91.8125V119H819.188V94.0625C819.188 91.0312 818.75 88.3281 817.875 85.9531C817.031 83.5469 815.797 81.5312 814.172 79.9062C812.578 78.25 810.625 77 808.312 76.1562C806.031 75.2812 803.469 74.8438 800.625 74.8438C799.125 74.8438 797.578 75 795.984 75.3125C794.422 75.625 792.875 76.0781 791.344 76.6719C789.844 77.2344 788.391 77.9531 786.984 78.8281C785.578 79.6719 784.297 80.6406 783.141 81.7344V119H769.266V63.6875ZM857.391 56.1406C856.016 56.1406 854.766 55.9531 853.641 55.5781C852.547 55.1719 851.609 54.6406 850.828 53.9844C850.047 53.2969 849.438 52.5156 849 51.6406C848.594 50.7344 848.391 49.7812 848.391 48.7812C848.391 47.75 848.594 46.7969 849 45.9219C849.438 45.0156 850.047 44.2344 850.828 43.5781C851.609 42.9219 852.547 42.4062 853.641 42.0312C854.766 41.625 856.016 41.4219 857.391 41.4219C858.797 41.4219 860.047 41.625 861.141 42.0312C862.266 42.4062 863.219 42.9219 864 43.5781C864.781 44.2344 865.375 45.0156 865.781 45.9219C866.219 46.7969 866.438 47.75 866.438 48.7812C866.438 49.7812 866.219 50.7344 865.781 51.6406C865.375 52.5156 864.781 53.2969 864 53.9844C863.219 54.6406 862.266 55.1719 861.141 55.5781C860.047 55.9531 858.797 56.1406 857.391 56.1406ZM850.453 63.6875H864.328V119H850.453V63.6875ZM882.141 63.6875H896.016V68.375C899.703 66.2812 903.219 64.8125 906.562 63.9688C909.938 63.125 913.234 62.7031 916.453 62.7031C920.672 62.7031 924.578 63.3281 928.172 64.5781C931.766 65.7969 934.875 67.625 937.5 70.0625C940.125 72.5 942.172 75.5469 943.641 79.2031C945.141 82.8281 945.891 87.0312 945.891 91.8125V119H932.062V94.0625C932.062 91.0312 931.625 88.3281 930.75 85.9531C929.906 83.5469 928.672 81.5312 927.047 79.9062C925.453 78.25 923.5 77 921.188 76.1562C918.906 75.2812 916.344 74.8438 913.5 74.8438C912 74.8438 910.453 75 908.859 75.3125C907.297 75.625 905.75 76.0781 904.219 76.6719C902.719 77.2344 901.266 77.9531 899.859 78.8281C898.453 79.6719 897.172 80.6406 896.016 81.7344V119H882.141V63.6875ZM962.953 41.2812H976.828V67.9062C979.734 66.3125 982.969 65.0469 986.531 64.1094C990.125 63.1719 993.891 62.7031 997.828 62.7031C1002.39 62.7031 1006.48 63.375 1010.11 64.7188C1013.77 66.0625 1016.86 68 1019.39 70.5312C1021.92 73.0312 1023.86 76.0781 1025.2 79.6719C1026.58 83.2656 1027.27 87.3125 1027.27 91.8125V119H1013.44V92.375C1013.44 89.75 1013.02 87.3594 1012.17 85.2031C1011.33 83.0156 1010.09 81.1406 1008.47 79.5781C1006.84 78.0156 1004.86 76.8125 1002.52 75.9688C1000.2 75.0938 997.578 74.6562 994.641 74.6562C991.109 74.6562 987.828 75.2188 984.797 76.3438C981.766 77.4688 979.109 78.8906 976.828 80.6094V119H962.953V41.2812ZM1039.5 91.3438C1039.5 87.375 1040.3 83.6562 1041.89 80.1875C1043.52 76.7188 1045.81 73.6875 1048.78 71.0938C1051.78 68.5 1055.39 66.4531 1059.61 64.9531C1063.86 63.4531 1068.62 62.7031 1073.91 62.7031C1079.19 62.7031 1083.94 63.4531 1088.16 64.9531C1092.41 66.4531 1096.02 68.5 1098.98 71.0938C1101.98 73.6875 1104.28 76.7188 1105.88 80.1875C1107.5 83.6562 1108.31 87.375 1108.31 91.3438C1108.31 95.3125 1107.5 99.0312 1105.88 102.5C1104.28 105.969 1101.98 109 1098.98 111.594C1096.02 114.188 1092.41 116.234 1088.16 117.734C1083.94 119.234 1079.19 119.984 1073.91 119.984C1068.62 119.984 1063.86 119.234 1059.61 117.734C1055.39 116.234 1051.78 114.188 1048.78 111.594C1045.81 109 1043.52 105.969 1041.89 102.5C1040.3 99.0312 1039.5 95.3125 1039.5 91.3438ZM1054.08 91.3438C1054.08 93.5625 1054.52 95.6719 1055.39 97.6719C1056.3 99.6406 1057.59 101.391 1059.28 102.922C1061 104.422 1063.08 105.625 1065.52 106.531C1067.98 107.406 1070.78 107.844 1073.91 107.844C1077.03 107.844 1079.81 107.406 1082.25 106.531C1084.72 105.625 1086.8 104.422 1088.48 102.922C1090.2 101.391 1091.5 99.6406 1092.38 97.6719C1093.28 95.6719 1093.73 93.5625 1093.73 91.3438C1093.73 89.125 1093.28 87.0156 1092.38 85.0156C1091.5 83.0156 1090.2 81.2656 1088.48 79.7656C1086.8 78.2344 1084.72 77.0312 1082.25 76.1562C1079.81 75.25 1077.03 74.7969 1073.91 74.7969C1070.78 74.7969 1067.98 75.25 1065.52 76.1562C1063.08 77.0312 1061 78.2344 1059.28 79.7656C1057.59 81.2656 1056.3 83.0156 1055.39 85.0156C1054.52 87.0156 1054.08 89.125 1054.08 91.3438Z" fill="white"/>
<path d="M388.406 211.578C388.406 207.172 389.234 203.203 390.891 199.672C392.547 196.109 394.828 193.078 397.734 190.578C400.672 188.047 404.141 186.109 408.141 184.766C412.172 183.391 416.531 182.703 421.219 182.703C423.219 182.703 425.188 182.828 427.125 183.078C429.094 183.328 430.969 183.672 432.75 184.109C434.562 184.547 436.25 185.078 437.812 185.703C439.406 186.297 440.812 186.953 442.031 187.672V161.234H455.906V239H442.031V233.797C440.812 234.641 439.375 235.438 437.719 236.188C436.062 236.938 434.281 237.594 432.375 238.156C430.469 238.719 428.484 239.156 426.422 239.469C424.391 239.812 422.375 239.984 420.375 239.984C415.688 239.984 411.375 239.297 407.438 237.922C403.531 236.547 400.172 234.609 397.359 232.109C394.547 229.609 392.344 226.625 390.75 223.156C389.188 219.656 388.406 215.797 388.406 211.578ZM402.984 211.578C402.984 213.797 403.422 215.891 404.297 217.859C405.203 219.828 406.484 221.562 408.141 223.062C409.828 224.531 411.844 225.703 414.188 226.578C416.562 227.422 419.219 227.844 422.156 227.844C424.031 227.844 425.906 227.672 427.781 227.328C429.656 226.953 431.453 226.438 433.172 225.781C434.922 225.125 436.547 224.328 438.047 223.391C439.578 222.453 440.906 221.406 442.031 220.25V201.078C440.625 199.953 439.141 199 437.578 198.219C436.016 197.438 434.422 196.797 432.797 196.297C431.172 195.797 429.531 195.438 427.875 195.219C426.219 194.969 424.609 194.844 423.047 194.844C419.859 194.844 417.016 195.281 414.516 196.156C412.047 197 409.953 198.172 408.234 199.672C406.547 201.172 405.25 202.938 404.344 204.969C403.438 207 402.984 209.203 402.984 211.578ZM469.594 211.344C469.594 207.375 470.391 203.656 471.984 200.188C473.609 196.719 475.906 193.688 478.875 191.094C481.875 188.5 485.484 186.453 489.703 184.953C493.953 183.453 498.719 182.703 504 182.703C509.281 182.703 514.031 183.453 518.25 184.953C522.5 186.453 526.109 188.5 529.078 191.094C532.078 193.688 534.375 196.719 535.969 200.188C537.594 203.656 538.406 207.375 538.406 211.344C538.406 215.312 537.594 219.031 535.969 222.5C534.375 225.969 532.078 229 529.078 231.594C526.109 234.188 522.5 236.234 518.25 237.734C514.031 239.234 509.281 239.984 504 239.984C498.719 239.984 493.953 239.234 489.703 237.734C485.484 236.234 481.875 234.188 478.875 231.594C475.906 229 473.609 225.969 471.984 222.5C470.391 219.031 469.594 215.312 469.594 211.344ZM484.172 211.344C484.172 213.562 484.609 215.672 485.484 217.672C486.391 219.641 487.688 221.391 489.375 222.922C491.094 224.422 493.172 225.625 495.609 226.531C498.078 227.406 500.875 227.844 504 227.844C507.125 227.844 509.906 227.406 512.344 226.531C514.812 225.625 516.891 224.422 518.578 222.922C520.297 221.391 521.594 219.641 522.469 217.672C523.375 215.672 523.828 213.562 523.828 211.344C523.828 209.125 523.375 207.016 522.469 205.016C521.594 203.016 520.297 201.266 518.578 199.766C516.891 198.234 514.812 197.031 512.344 196.156C509.906 195.25 507.125 194.797 504 194.797C500.875 194.797 498.078 195.25 495.609 196.156C493.172 197.031 491.094 198.234 489.375 199.766C487.688 201.266 486.391 203.016 485.484 205.016C484.609 207.016 484.172 209.125 484.172 211.344ZM586.031 165.734H651.562V178.766H600.891V197.938H643.922V210.172H600.891V239H586.031V165.734ZM671.484 176.141C670.109 176.141 668.859 175.953 667.734 175.578C666.641 175.172 665.703 174.641 664.922 173.984C664.141 173.297 663.531 172.516 663.094 171.641C662.688 170.734 662.484 169.781 662.484 168.781C662.484 167.75 662.688 166.797 663.094 165.922C663.531 165.016 664.141 164.234 664.922 163.578C665.703 162.922 666.641 162.406 667.734 162.031C668.859 161.625 670.109 161.422 671.484 161.422C672.891 161.422 674.141 161.625 675.234 162.031C676.359 162.406 677.312 162.922 678.094 163.578C678.875 164.234 679.469 165.016 679.875 165.922C680.312 166.797 680.531 167.75 680.531 168.781C680.531 169.781 680.312 170.734 679.875 171.641C679.469 172.516 678.875 173.297 678.094 173.984C677.312 174.641 676.359 175.172 675.234 175.578C674.141 175.953 672.891 176.141 671.484 176.141ZM664.547 183.688H678.422V239H664.547V183.688ZM693.609 221.562C693.609 218.906 694.188 216.484 695.344 214.297C696.5 212.109 698.234 210.234 700.547 208.672C702.859 207.078 705.734 205.859 709.172 205.016C712.641 204.141 716.672 203.703 721.266 203.703C724.672 203.703 728.25 203.953 732 204.453C735.781 204.953 739.672 205.719 743.672 206.75C743.516 205 742.984 203.391 742.078 201.922C741.172 200.422 739.906 199.141 738.281 198.078C736.688 196.984 734.75 196.141 732.469 195.547C730.219 194.953 727.656 194.656 724.781 194.656C723.219 194.656 721.5 194.75 719.625 194.938C717.75 195.125 715.812 195.406 713.812 195.781C711.812 196.156 709.828 196.625 707.859 197.188C705.922 197.75 704.109 198.422 702.422 199.203L698.203 187.812C700.297 187.062 702.531 186.375 704.906 185.75C707.312 185.125 709.766 184.594 712.266 184.156C714.766 183.688 717.266 183.328 719.766 183.078C722.266 182.828 724.688 182.703 727.031 182.703C737.375 182.703 745.062 185.344 750.094 190.625C755.125 195.906 757.641 204 757.641 214.906V239H743.766V233.797C742.328 234.641 740.75 235.438 739.031 236.188C737.344 236.938 735.5 237.594 733.5 238.156C731.5 238.719 729.344 239.156 727.031 239.469C724.75 239.812 722.328 239.984 719.766 239.984C715.453 239.984 711.656 239.516 708.375 238.578C705.125 237.641 702.406 236.344 700.219 234.688C698.031 233.031 696.375 231.094 695.25 228.875C694.156 226.625 693.609 224.188 693.609 221.562ZM708.234 221.094C708.234 222 708.469 222.875 708.938 223.719C709.406 224.531 710.156 225.266 711.188 225.922C712.219 226.547 713.531 227.062 715.125 227.469C716.75 227.844 718.703 228.031 720.984 228.031C723.422 228.031 725.781 227.812 728.062 227.375C730.344 226.938 732.469 226.359 734.438 225.641C736.406 224.922 738.188 224.094 739.781 223.156C741.375 222.219 742.703 221.25 743.766 220.25V217.812C741.641 217.219 739.531 216.719 737.438 216.312C735.375 215.906 733.391 215.594 731.484 215.375C729.609 215.125 727.828 214.953 726.141 214.859C724.484 214.766 723.031 214.719 721.781 214.719C719.188 214.719 717.031 214.891 715.312 215.234C713.594 215.578 712.203 216.047 711.141 216.641C710.078 217.203 709.328 217.875 708.891 218.656C708.453 219.438 708.234 220.25 708.234 221.094ZM771.75 211.578C771.75 207.172 772.578 203.203 774.234 199.672C775.891 196.109 778.172 193.078 781.078 190.578C784.016 188.047 787.484 186.109 791.484 184.766C795.516 183.391 799.875 182.703 804.562 182.703C806.562 182.703 808.531 182.828 810.469 183.078C812.438 183.328 814.312 183.672 816.094 184.109C817.906 184.547 819.594 185.078 821.156 185.703C822.75 186.297 824.156 186.953 825.375 187.672V161.234H839.25V239H825.375V233.797C824.156 234.641 822.719 235.438 821.062 236.188C819.406 236.938 817.625 237.594 815.719 238.156C813.812 238.719 811.828 239.156 809.766 239.469C807.734 239.812 805.719 239.984 803.719 239.984C799.031 239.984 794.719 239.297 790.781 237.922C786.875 236.547 783.516 234.609 780.703 232.109C777.891 229.609 775.688 226.625 774.094 223.156C772.531 219.656 771.75 215.797 771.75 211.578ZM786.328 211.578C786.328 213.797 786.766 215.891 787.641 217.859C788.547 219.828 789.828 221.562 791.484 223.062C793.172 224.531 795.188 225.703 797.531 226.578C799.906 227.422 802.562 227.844 805.5 227.844C807.375 227.844 809.25 227.672 811.125 227.328C813 226.953 814.797 226.438 816.516 225.781C818.266 225.125 819.891 224.328 821.391 223.391C822.922 222.453 824.25 221.406 825.375 220.25V201.078C823.969 199.953 822.484 199 820.922 198.219C819.359 197.438 817.766 196.797 816.141 196.297C814.516 195.797 812.875 195.438 811.219 195.219C809.562 194.969 807.953 194.844 806.391 194.844C803.203 194.844 800.359 195.281 797.859 196.156C795.391 197 793.297 198.172 791.578 199.672C789.891 201.172 788.594 202.938 787.688 204.969C786.781 207 786.328 209.203 786.328 211.578ZM852.938 211.344C852.938 207.375 853.734 203.656 855.328 200.188C856.953 196.719 859.25 193.688 862.219 191.094C865.219 188.5 868.828 186.453 873.047 184.953C877.297 183.453 882.062 182.703 887.344 182.703C892.625 182.703 897.375 183.453 901.594 184.953C905.844 186.453 909.453 188.5 912.422 191.094C915.422 193.688 917.719 196.719 919.312 200.188C920.938 203.656 921.75 207.375 921.75 211.344C921.75 215.312 920.938 219.031 919.312 222.5C917.719 225.969 915.422 229 912.422 231.594C909.453 234.188 905.844 236.234 901.594 237.734C897.375 239.234 892.625 239.984 887.344 239.984C882.062 239.984 877.297 239.234 873.047 237.734C868.828 236.234 865.219 234.188 862.219 231.594C859.25 229 856.953 225.969 855.328 222.5C853.734 219.031 852.938 215.312 852.938 211.344ZM867.516 211.344C867.516 213.562 867.953 215.672 868.828 217.672C869.734 219.641 871.031 221.391 872.719 222.922C874.438 224.422 876.516 225.625 878.953 226.531C881.422 227.406 884.219 227.844 887.344 227.844C890.469 227.844 893.25 227.406 895.688 226.531C898.156 225.625 900.234 224.422 901.922 222.922C903.641 221.391 904.938 219.641 905.812 217.672C906.719 215.672 907.172 213.562 907.172 211.344C907.172 209.125 906.719 207.016 905.812 205.016C904.938 203.016 903.641 201.266 901.922 199.766C900.234 198.234 898.156 197.031 895.688 196.156C893.25 195.25 890.469 194.797 887.344 194.797C884.219 194.797 881.422 195.25 878.953 196.156C876.516 197.031 874.438 198.234 872.719 199.766C871.031 201.266 869.734 203.016 868.828 205.016C867.953 207.016 867.516 209.125 867.516 211.344Z" fill="#FACB24"/>
</svg>
